<?xml version="1.0" encoding="UTF-8" standalone="no" ?>
<!DOCTYPE svg PUBLIC "-//W3C//DTD SVG 1.1//EN" "http://www.w3.org/Graphics/SVG/1.1/DTD/svg11.dtd">
<svg xmlns="http://www.w3.org/2000/svg" xmlns:xlink="http://www.w3.org/1999/xlink" version="1.1" width="350" height="350" viewBox="0 0 350 350" xml:space="preserve">
<desc>Created with Fabric.js 1.7.22</desc>
<defs>
</defs>
<g id="icon" style="stroke: none; stroke-width: 1; stroke-dasharray: none; stroke-linecap: butt; stroke-linejoin: miter; stroke-miterlimit: 10; fill: none; fill-rule: nonzero; opacity: 1;" transform="translate(-1.9444444444444287 -1.9444444444444287) scale(3.89 3.89)" >
	<circle cx="45" cy="45" r="45" style="stroke: none; stroke-width: 1; stroke-dasharray: none; stroke-linecap: butt; stroke-linejoin: miter; stroke-miterlimit: 10; fill: rgb(32,196,203); fill-rule: nonzero; opacity: 1;" transform="  matrix(1 0 0 1 0 0) "/>
	<path d="M 37.858 36.563 l 15.58 15.58 c 4.443 -1.611 9.609 -0.649 13.171 2.913 c 3.694 3.694 4.604 9.115 2.735 13.663 l -7.126 -7.126 c -1.881 -1.881 -4.958 -1.881 -6.838 0 c -1.881 1.881 -1.881 4.958 0 6.838 l 7.126 7.126 c -4.548 1.869 -9.969 0.959 -13.663 -2.735 c -3.562 -3.562 -4.524 -8.728 -2.913 -13.171 l -15.58 -15.58 c -4.443 1.611 -9.609 0.649 -13.171 -2.913 c -3.694 -3.694 -4.604 -9.115 -2.735 -13.663 l 7.126 7.126 c 1.881 1.881 4.958 1.881 6.838 0 c 1.881 -1.881 1.881 -4.958 0 -6.838 l -7.126 -7.126 c 4.548 -1.869 9.969 -0.959 13.663 2.735 C 38.506 26.954 39.469 32.12 37.858 36.563 z" style="stroke: none; stroke-width: 1; stroke-dasharray: none; stroke-linecap: butt; stroke-linejoin: miter; stroke-miterlimit: 10; fill: rgb(27,167,173); fill-rule: nonzero; opacity: 1;" transform=" matrix(1 0 0 1 0 0) " stroke-linecap="round" />
	<path d="M 41.072 33.349 l 15.58 15.58 c 4.443 -1.611 9.609 -0.649 13.171 2.913 c 3.694 3.694 4.604 9.115 2.735 13.663 l -7.126 -7.126 c -1.881 -1.881 -4.958 -1.881 -6.838 0 c -1.881 1.881 -1.881 4.958 0 6.838 l 7.126 7.126 c -4.548 1.869 -9.969 0.959 -13.663 -2.735 c -3.562 -3.562 -4.524 -8.728 -2.913 -13.171 l -15.58 -15.58 c -4.443 1.611 -9.609 0.649 -13.171 -2.913 c -3.694 -3.694 -4.604 -9.115 -2.735 -13.663 l 7.126 7.126 c 1.881 1.881 4.958 1.881 6.838 0 c 1.881 -1.881 1.881 -4.958 0 -6.838 l -7.126 -7.126 c 4.548 -1.869 9.969 -0.959 13.663 2.735 C 41.721 23.74 42.683 28.906 41.072 33.349 z" style="stroke: none; stroke-width: 1; stroke-dasharray: none; stroke-linecap: butt; stroke-linejoin: miter; stroke-miterlimit: 10; fill: rgb(255,255,255); fill-rule: nonzero; opacity: 1;" transform=" matrix(1 0 0 1 0 0) " stroke-linecap="round" />
</g>
</svg>